<svg xmlns="http://www.w3.org/2000/svg" xmlns:xlink="http://www.w3.org/1999/xlink" width="1024" zoomAndPan="magnify" viewBox="0 0 768 576" height="768" preserveAspectRatio="xMidYMid meet" version="1.0"><path fill="#612c7d" d="M 395.414062 465.207031 C 388.9375 465.453125 382.660156 465.503906 375.660156 465.375 C 362.085938 465.121094 333.941406 463.605469 314.113281 459.9375 C 293.726562 456.160156 284.667969 454.496094 267.628906 447.972656 C 251.351562 441.742188 231.332031 428.113281 221.691406 410.980469 C 211.152344 392.253906 205.640625 359.382812 204.398438 335.621094 C 203.214844 313.007812 207.695312 289.738281 214.226562 268.402344 C 220.761719 247.066406 231.96875 223.671875 243.601562 207.613281 C 254.121094 193.082031 268.394531 180.894531 284.003906 172.042969 C 299.875 163.046875 320.5 157.320312 338.835938 153.625 C 356.902344 149.984375 376.050781 149.246094 394.003906 149.871094 " fill-opacity="1" fill-rule="nonzero"/><path fill="#612c7d" d="M 374.148438 465.199219 C 380.625 465.445312 386.648438 465.503906 393.136719 465.375 C 406.472656 465.109375 434.394531 463.605469 454.21875 459.9375 C 474.609375 456.160156 483.667969 454.496094 500.707031 447.972656 C 516.984375 441.742188 537 428.113281 546.644531 410.980469 C 557.183594 392.253906 562.695312 359.382812 563.9375 335.621094 C 565.121094 313.007812 560.640625 289.738281 554.105469 268.402344 C 547.574219 247.066406 536.363281 223.671875 524.734375 207.613281 C 514.210938 193.082031 499.941406 180.894531 484.332031 172.042969 C 468.457031 163.046875 447.839844 157.433594 429.5 153.625 C 417.753906 151.1875 406.359375 150.398438 394.332031 149.882812 C 387.855469 149.605469 380.734375 149.574219 374.28125 149.796875 " fill-opacity="1" fill-rule="nonzero"/><path fill="#612c7d" d="M 605.160156 246.789062 C 618.101562 238.117188 648.203125 226.546875 666.835938 223.667969 C 683.457031 221.097656 705.898438 223.296875 716.945312 229.515625 C 727.222656 235.296875 731.871094 250.109375 733.125 260.964844 C 734.375 271.824219 734.824219 289.449219 724.464844 294.660156 C 707.355469 303.265625 651.042969 310.808594 630.472656 312.601562 C 620.40625 313.480469 607.90625 311.578125 601.027344 305.425781 C 594.148438 299.273438 588.515625 285.460938 589.203125 275.6875 C 589.894531 265.917969 596.019531 252.914062 605.160156 246.789062 Z M 605.160156 246.789062 " fill-opacity="1" fill-rule="nonzero"/><path fill="#612c7d" d="M 163.144531 246.824219 C 150.207031 238.15625 120.105469 226.582031 101.472656 223.703125 C 84.851562 221.136719 62.410156 223.332031 51.359375 229.550781 C 41.085938 235.332031 36.4375 250.144531 35.183594 261.003906 C 33.929688 271.859375 33.484375 289.484375 43.84375 294.695312 C 60.953125 303.300781 117.265625 310.84375 137.835938 312.640625 C 147.902344 313.515625 160.402344 311.613281 167.28125 305.460938 C 174.160156 299.308594 179.792969 285.5 179.101562 275.726562 C 178.414062 265.953125 172.285156 252.953125 163.144531 246.824219 Z M 163.144531 246.824219 " fill-opacity="1" fill-rule="nonzero"/><path fill="#612c7d" d="M 590.160156 367.648438 C 598.351562 359.726562 621.285156 349.148438 636.195312 343.945312 C 650.066406 339.105469 668.347656 335.59375 679.625 336.429688 C 688.691406 337.101562 698.972656 342.691406 703.84375 348.957031 C 708.71875 355.222656 713.359375 366.78125 708.855469 374.011719 C 704.261719 381.390625 687.699219 388.351562 676.285156 393.222656 C 664.871094 398.09375 652.628906 401.203125 640.371094 403.246094 C 627.839844 405.332031 610 407.714844 601.113281 405.75 C 594.59375 404.3125 588.886719 397.820312 587.0625 391.472656 C 585.234375 385.121094 584.40625 373.214844 590.160156 367.648438 Z M 590.160156 367.648438 " fill-opacity="1" fill-rule="nonzero"/><path fill="#612c7d" d="M 62.105469 375.171875 C 70.296875 383.09375 93.226562 393.671875 108.140625 398.875 C 122.011719 403.714844 140.292969 407.226562 151.570312 406.390625 C 160.632812 405.71875 170.917969 400.125 175.789062 393.863281 C 180.664062 387.597656 185.304688 376.035156 180.800781 368.804688 C 176.207031 361.429688 159.644531 354.46875 148.226562 349.597656 C 136.8125 344.722656 124.574219 341.617188 112.316406 339.574219 C 99.785156 337.488281 81.945312 335.105469 73.058594 337.066406 C 66.539062 338.507812 60.832031 344.996094 59.007812 351.347656 C 57.179688 357.699219 56.351562 369.605469 62.105469 375.171875 Z M 62.105469 375.171875 " fill-opacity="1" fill-rule="nonzero"/><path fill="#612c7d" d="M 95.832031 149.371094 C 99.191406 140.660156 108.351562 130.519531 116.144531 124.394531 C 123.734375 118.433594 133.320312 113.609375 142.601562 112.621094 C 151.882812 111.636719 162.855469 114.929688 171.835938 118.46875 C 180.816406 122.007812 189.078125 127.613281 196.488281 133.851562 C 204.03125 140.203125 212.71875 148.40625 217.101562 156.5625 C 221.335938 164.4375 222.941406 174.261719 222.78125 182.777344 C 222.621094 191.296875 220.734375 201.132812 216.140625 207.675781 C 211.546875 214.21875 203.523438 220.421875 195.21875 222.035156 C 185.050781 224.007812 168.136719 222.710938 155.128906 219.527344 C 142.046875 216.328125 126.566406 209.96875 116.710938 202.824219 C 107.703125 196.296875 99.46875 185.570312 95.992188 176.664062 C 92.625 168.042969 92.558594 157.859375 95.832031 149.371094 Z M 95.832031 149.371094 " fill-opacity="1" fill-rule="nonzero"/><path fill="#612c7d" d="M 672.484375 149.371094 C 669.128906 140.660156 659.964844 130.519531 652.171875 124.394531 C 644.582031 118.433594 634.996094 113.609375 625.714844 112.621094 C 616.433594 111.636719 605.464844 114.929688 596.480469 118.46875 C 587.5 122.007812 579.242188 127.613281 571.828125 133.851562 C 564.285156 140.203125 555.597656 148.40625 551.214844 156.5625 C 546.980469 164.4375 545.375 174.261719 545.535156 182.777344 C 545.695312 191.296875 547.582031 201.132812 552.175781 207.675781 C 556.769531 214.21875 564.792969 220.421875 573.097656 222.035156 C 583.265625 224.007812 600.179688 222.710938 613.1875 219.527344 C 626.269531 216.328125 641.75 209.96875 651.605469 202.824219 C 660.613281 196.296875 668.847656 185.570312 672.328125 176.664062 C 675.695312 168.042969 675.757812 157.859375 672.484375 149.371094 Z M 672.484375 149.371094 " fill-opacity="1" fill-rule="nonzero"/><path fill="#ffffff" d="M 319.652344 255.859375 C 319.652344 256.832031 319.605469 257.800781 319.507812 258.765625 C 319.414062 259.730469 319.269531 260.691406 319.078125 261.644531 C 318.882812 262.597656 318.644531 263.535156 318.359375 264.464844 C 318.074219 265.394531 317.742188 266.308594 317.367188 267.207031 C 316.988281 268.101562 316.566406 268.980469 316.105469 269.835938 C 315.640625 270.691406 315.132812 271.523438 314.585938 272.332031 C 314.039062 273.140625 313.453125 273.917969 312.828125 274.667969 C 312.203125 275.417969 311.542969 276.136719 310.847656 276.824219 C 310.152344 277.511719 309.421875 278.164062 308.660156 278.777344 C 307.898438 279.394531 307.109375 279.972656 306.292969 280.511719 C 305.472656 281.050781 304.628906 281.550781 303.761719 282.007812 C 302.890625 282.464844 302.003906 282.878906 301.09375 283.253906 C 300.183594 283.625 299.257812 283.949219 298.316406 284.234375 C 297.371094 284.515625 296.417969 284.75 295.453125 284.941406 C 294.488281 285.128906 293.515625 285.269531 292.535156 285.367188 C 291.554688 285.460938 290.570312 285.507812 289.585938 285.507812 C 288.601562 285.507812 287.621094 285.460938 286.640625 285.367188 C 285.660156 285.269531 284.6875 285.128906 283.722656 284.941406 C 282.753906 284.75 281.800781 284.515625 280.859375 284.234375 C 279.917969 283.949219 278.992188 283.625 278.082031 283.253906 C 277.171875 282.878906 276.28125 282.464844 275.414062 282.007812 C 274.542969 281.550781 273.703125 281.050781 272.882812 280.511719 C 272.0625 279.972656 271.273438 279.394531 270.511719 278.777344 C 269.75 278.164062 269.023438 277.511719 268.328125 276.824219 C 267.628906 276.136719 266.96875 275.417969 266.34375 274.667969 C 265.71875 273.917969 265.132812 273.140625 264.585938 272.332031 C 264.039062 271.523438 263.535156 270.691406 263.070312 269.835938 C 262.605469 268.980469 262.183594 268.101562 261.808594 267.207031 C 261.429688 266.308594 261.101562 265.394531 260.8125 264.464844 C 260.527344 263.535156 260.289062 262.597656 260.097656 261.644531 C 259.90625 260.691406 259.761719 259.730469 259.664062 258.765625 C 259.566406 257.800781 259.519531 256.832031 259.519531 255.859375 C 259.519531 254.886719 259.566406 253.917969 259.664062 252.953125 C 259.761719 251.988281 259.90625 251.027344 260.097656 250.074219 C 260.289062 249.121094 260.527344 248.179688 260.8125 247.253906 C 261.101562 246.324219 261.429688 245.410156 261.808594 244.511719 C 262.183594 243.617188 262.605469 242.738281 263.070312 241.882812 C 263.535156 241.027344 264.039062 240.195312 264.585938 239.386719 C 265.132812 238.578125 265.71875 237.800781 266.34375 237.050781 C 266.96875 236.296875 267.628906 235.578125 268.328125 234.894531 C 269.023438 234.207031 269.75 233.554688 270.511719 232.9375 C 271.273438 232.324219 272.0625 231.746094 272.882812 231.207031 C 273.703125 230.667969 274.542969 230.167969 275.414062 229.710938 C 276.28125 229.253906 277.171875 228.835938 278.082031 228.464844 C 278.992188 228.09375 279.917969 227.769531 280.859375 227.484375 C 281.800781 227.203125 282.753906 226.96875 283.722656 226.777344 C 284.6875 226.589844 285.660156 226.445312 286.640625 226.351562 C 287.621094 226.257812 288.601562 226.210938 289.585938 226.210938 C 290.570312 226.210938 291.554688 226.257812 292.535156 226.351562 C 293.515625 226.445312 294.488281 226.589844 295.453125 226.777344 C 296.417969 226.96875 297.371094 227.203125 298.316406 227.484375 C 299.257812 227.769531 300.183594 228.09375 301.09375 228.464844 C 302.003906 228.835938 302.890625 229.253906 303.761719 229.710938 C 304.628906 230.167969 305.472656 230.667969 306.292969 231.207031 C 307.109375 231.746094 307.898438 232.324219 308.660156 232.9375 C 309.421875 233.554688 310.152344 234.207031 310.847656 234.894531 C 311.542969 235.578125 312.203125 236.296875 312.828125 237.050781 C 313.453125 237.800781 314.039062 238.578125 314.585938 239.386719 C 315.132812 240.195312 315.640625 241.027344 316.105469 241.882812 C 316.566406 242.738281 316.988281 243.617188 317.367188 244.511719 C 317.742188 245.410156 318.074219 246.324219 318.359375 247.253906 C 318.644531 248.179688 318.882812 249.121094 319.078125 250.074219 C 319.269531 251.027344 319.414062 251.988281 319.507812 252.953125 C 319.605469 253.917969 319.652344 254.886719 319.652344 255.859375 Z M 319.652344 255.859375 " fill-opacity="1" fill-rule="nonzero"/><path fill="#ffffff" d="M 508.796875 256.277344 C 508.796875 257.25 508.75 258.21875 508.652344 259.183594 C 508.554688 260.148438 508.414062 261.109375 508.21875 262.0625 C 508.027344 263.015625 507.789062 263.953125 507.503906 264.882812 C 507.21875 265.8125 506.886719 266.726562 506.507812 267.625 C 506.132812 268.519531 505.710938 269.398438 505.246094 270.253906 C 504.785156 271.109375 504.277344 271.941406 503.730469 272.75 C 503.183594 273.558594 502.597656 274.335938 501.972656 275.085938 C 501.347656 275.835938 500.6875 276.554688 499.992188 277.242188 C 499.292969 277.929688 498.566406 278.582031 497.804688 279.195312 C 497.042969 279.8125 496.253906 280.390625 495.433594 280.929688 C 494.617188 281.46875 493.773438 281.96875 492.902344 282.425781 C 492.035156 282.882812 491.148438 283.296875 490.238281 283.671875 C 489.328125 284.042969 488.402344 284.367188 487.457031 284.652344 C 486.515625 284.933594 485.5625 285.167969 484.597656 285.359375 C 483.628906 285.546875 482.65625 285.6875 481.675781 285.785156 C 480.699219 285.878906 479.714844 285.925781 478.730469 285.925781 C 477.746094 285.925781 476.761719 285.878906 475.785156 285.785156 C 474.804688 285.691406 473.832031 285.546875 472.863281 285.359375 C 471.898438 285.167969 470.945312 284.933594 470.003906 284.652344 C 469.058594 284.367188 468.132812 284.042969 467.222656 283.671875 C 466.3125 283.296875 465.425781 282.882812 464.558594 282.425781 C 463.6875 281.96875 462.84375 281.46875 462.027344 280.929688 C 461.207031 280.390625 460.417969 279.8125 459.65625 279.195312 C 458.894531 278.582031 458.167969 277.929688 457.46875 277.242188 C 456.773438 276.554688 456.113281 275.835938 455.488281 275.085938 C 454.863281 274.335938 454.277344 273.558594 453.730469 272.75 C 453.183594 271.941406 452.675781 271.109375 452.214844 270.253906 C 451.75 269.398438 451.328125 268.519531 450.953125 267.625 C 450.574219 266.726562 450.242188 265.8125 449.957031 264.882812 C 449.671875 263.953125 449.433594 263.015625 449.242188 262.0625 C 449.046875 261.109375 448.90625 260.148438 448.808594 259.183594 C 448.710938 258.21875 448.664062 257.25 448.664062 256.277344 C 448.664062 255.304688 448.710938 254.335938 448.808594 253.371094 C 448.90625 252.40625 449.046875 251.445312 449.242188 250.492188 C 449.433594 249.539062 449.671875 248.601562 449.957031 247.671875 C 450.242188 246.742188 450.574219 245.828125 450.953125 244.929688 C 451.328125 244.035156 451.75 243.15625 452.214844 242.300781 C 452.675781 241.445312 453.183594 240.613281 453.730469 239.804688 C 454.277344 238.996094 454.863281 238.21875 455.488281 237.46875 C 456.113281 236.71875 456.773438 236 457.46875 235.3125 C 458.167969 234.625 458.894531 233.972656 459.65625 233.359375 C 460.417969 232.742188 461.207031 232.164062 462.027344 231.625 C 462.84375 231.085938 463.6875 230.585938 464.558594 230.128906 C 465.425781 229.671875 466.3125 229.257812 467.222656 228.882812 C 468.132812 228.511719 469.058594 228.1875 470.003906 227.902344 C 470.945312 227.621094 471.898438 227.386719 472.863281 227.195312 C 473.832031 227.007812 474.804688 226.867188 475.785156 226.769531 C 476.761719 226.675781 477.746094 226.628906 478.730469 226.628906 C 479.714844 226.628906 480.699219 226.675781 481.675781 226.769531 C 482.65625 226.867188 483.628906 227.007812 484.597656 227.195312 C 485.5625 227.386719 486.515625 227.621094 487.457031 227.902344 C 488.402344 228.1875 489.328125 228.511719 490.238281 228.882812 C 491.148438 229.257812 492.035156 229.671875 492.902344 230.128906 C 493.773438 230.585938 494.617188 231.085938 495.433594 231.625 C 496.253906 232.164062 497.042969 232.742188 497.804688 233.359375 C 498.566406 233.972656 499.296875 234.625 499.992188 235.3125 C 500.6875 236 501.347656 236.71875 501.972656 237.46875 C 502.597656 238.21875 503.183594 238.996094 503.730469 239.804688 C 504.277344 240.613281 504.785156 241.445312 505.246094 242.300781 C 505.710938 243.15625 506.132812 244.035156 506.507812 244.929688 C 506.886719 245.828125 507.21875 246.742188 507.503906 247.671875 C 507.789062 248.601562 508.027344 249.539062 508.21875 250.492188 C 508.414062 251.445312 508.554688 252.40625 508.652344 253.371094 C 508.75 254.335938 508.796875 255.304688 508.796875 256.277344 Z M 508.796875 256.277344 " fill-opacity="1" fill-rule="nonzero"/><path fill="#ffffff" d="M 383.027344 374.570312 C 399.050781 374.355469 415.175781 373.203125 428.898438 370.992188 C 441.324219 368.988281 454.511719 364.304688 465.359375 361.296875 C 474.941406 358.640625 487.832031 351.40625 493.988281 352.9375 C 500.144531 354.472656 503.179688 364.617188 502.300781 370.503906 C 501.417969 376.394531 494.996094 384.199219 488.699219 388.269531 C 479.964844 393.921875 467.414062 399.28125 449.878906 404.398438 C 430.664062 410.007812 405.480469 413.3125 382.964844 413.429688 " fill-opacity="1" fill-rule="nonzero"/><path fill="#ffffff" d="M 384.046875 374.570312 C 368.023438 374.355469 351.894531 373.203125 338.175781 370.992188 C 325.75 368.988281 312.558594 364.304688 301.710938 361.296875 C 292.128906 358.640625 279.238281 351.40625 273.082031 352.9375 C 266.925781 354.472656 263.890625 364.617188 264.773438 370.503906 C 265.652344 376.394531 272.074219 384.199219 278.371094 388.269531 C 287.109375 393.921875 299.660156 399.28125 317.191406 404.398438 C 336.40625 410.007812 361.59375 413.3125 384.105469 413.429688 " fill-opacity="1" fill-rule="nonzero"/></svg>